<?xml version="1.0" encoding="utf-8"?>
<!-- Generator: Adobe Illustrator 23.0.3, SVG Export Plug-In . SVG Version: 6.00 Build 0)  -->
<svg version="1.1" id="Calque_1" xmlns="http://www.w3.org/2000/svg" xmlns:xlink="http://www.w3.org/1999/xlink" x="0px" y="0px"
	 viewBox="0 0 900 900" style="enable-background:new 0 0 900 900;" xml:space="preserve">
<style type="text/css">
	.st0{fill:url(#SVGID_1_);}
	.st1{fill:url(#SVGID_2_);}
	.st2{fill:url(#SVGID_3_);}
	.st3{fill:url(#SVGID_4_);}
	.st4{fill:url(#SVGID_5_);}
	.st5{fill:url(#SVGID_6_);}
	.st6{fill:url(#SVGID_7_);}
	.st7{opacity:0;}
	.st8{font-family:'Microsoft-Yi-Baiti';}
	.st9{font-size:264.3553px;}
</style>
<g>
	<g>
		<linearGradient id="SVGID_1_" gradientUnits="userSpaceOnUse" x1="6.1034" y1="332.2519" x2="893.8966" y2="332.2519">
			<stop  offset="1.082549e-07" style="stop-color:#60C2A6"/>
			<stop  offset="0.1757" style="stop-color:#11BABA"/>
			<stop  offset="0.345" style="stop-color:#0098BA"/>
			<stop  offset="0.5072" style="stop-color:#0075AA"/>
			<stop  offset="0.7667" style="stop-color:#03508B"/>
			<stop  offset="1" style="stop-color:#252C63"/>
		</linearGradient>
		<path class="st0" d="M342.13,183.78c-45.86,33.41-75.71,87.52-75.71,148.47s29.86,115.06,75.71,148.47
			c-11.81-2.66-23.63-5.75-35.44-9.27c-41.94-12.49-82.95-30.02-121.88-52.11c-41.42-23.5-70-46.23-86.67-61.16
			c-11.87-10.63-20.09-19.42-25.51-25.94c5.41-6.52,13.64-15.31,25.51-25.94c16.68-14.93,45.25-37.65,86.67-61.16
			c38.93-22.09,79.94-39.62,121.88-52.11C318.5,189.53,330.32,186.44,342.13,183.78 M560.03,185.38
			c61.83,15.39,114.76,41.05,153.44,63.89c40.85,24.12,70.34,47.66,87.88,63.17c8.6,7.6,15.46,14.25,20.81,19.82
			c-5.35,5.57-12.21,12.22-20.81,19.82c-17.54,15.51-47.03,39.05-87.88,63.17c-38.68,22.84-91.61,48.5-153.44,63.89
			c44.64-33.52,73.56-86.88,73.56-146.88S604.67,218.9,560.03,185.38 M450,111.48c-245.16,0-443.9,173.77-443.9,220.78
			S204.84,553.03,450,553.03s443.9-188.62,443.9-220.78S695.16,111.48,450,111.48L450,111.48z M450,455.84
			c-68.26,0-123.59-55.33-123.59-123.59S381.74,208.66,450,208.66S573.59,264,573.59,332.25S518.26,455.84,450,455.84L450,455.84z
			 M475.97,269.79L475.97,269.79L475.97,269.79z M475.97,269.79l-100.4,71.17l58.22,7.7l38.78,44.11L475.97,269.79L475.97,269.79z"
			/>
	</g>
	<g>
		<g>
			<linearGradient id="SVGID_2_" gradientUnits="userSpaceOnUse" x1="47.5635" y1="667.6854" x2="948.7041" y2="662.2893">
				<stop  offset="1.082549e-07" style="stop-color:#60C2A6"/>
				<stop  offset="0.1757" style="stop-color:#11BABA"/>
				<stop  offset="0.345" style="stop-color:#0098BA"/>
				<stop  offset="0.5072" style="stop-color:#0075AA"/>
				<stop  offset="0.7667" style="stop-color:#03508B"/>
				<stop  offset="1" style="stop-color:#252C63"/>
			</linearGradient>
			<path class="st1" d="M196.81,744.51h-14.66L88.86,615.43v129.08H77.69V603.16h15.36l92.59,128.82V603.16h11.17V744.51z"/>
			<linearGradient id="SVGID_3_" gradientUnits="userSpaceOnUse" x1="47.5635" y1="667.6854" x2="948.7041" y2="662.2893">
				<stop  offset="1.082549e-07" style="stop-color:#60C2A6"/>
				<stop  offset="0.1757" style="stop-color:#11BABA"/>
				<stop  offset="0.345" style="stop-color:#0098BA"/>
				<stop  offset="0.5072" style="stop-color:#0075AA"/>
				<stop  offset="0.7667" style="stop-color:#03508B"/>
				<stop  offset="1" style="stop-color:#252C63"/>
			</linearGradient>
			<path class="st2" d="M321.52,691.2h-83.93v-11.23h83.93V691.2z"/>
			<linearGradient id="SVGID_4_" gradientUnits="userSpaceOnUse" x1="47.5635" y1="667.6854" x2="948.7041" y2="662.2893">
				<stop  offset="1.082549e-07" style="stop-color:#60C2A6"/>
				<stop  offset="0.1757" style="stop-color:#11BABA"/>
				<stop  offset="0.345" style="stop-color:#0098BA"/>
				<stop  offset="0.5072" style="stop-color:#0075AA"/>
				<stop  offset="0.7667" style="stop-color:#03508B"/>
				<stop  offset="1" style="stop-color:#252C63"/>
			</linearGradient>
			<path class="st3" d="M482.82,603.16l-59.91,141.34h-14.38l-59.91-141.34h12.43l54.74,128.43l54.74-128.43H482.82z"/>
			<linearGradient id="SVGID_5_" gradientUnits="userSpaceOnUse" x1="47.5635" y1="667.6854" x2="948.7041" y2="662.2893">
				<stop  offset="1.082549e-07" style="stop-color:#60C2A6"/>
				<stop  offset="0.1757" style="stop-color:#11BABA"/>
				<stop  offset="0.345" style="stop-color:#0098BA"/>
				<stop  offset="0.5072" style="stop-color:#0075AA"/>
				<stop  offset="0.7667" style="stop-color:#03508B"/>
				<stop  offset="1" style="stop-color:#252C63"/>
			</linearGradient>
			<path class="st4" d="M524.16,744.51h-11.17V603.16h11.17V744.51z"/>
			<linearGradient id="SVGID_6_" gradientUnits="userSpaceOnUse" x1="47.5635" y1="667.6854" x2="948.7041" y2="662.2893">
				<stop  offset="1.082549e-07" style="stop-color:#60C2A6"/>
				<stop  offset="0.1757" style="stop-color:#11BABA"/>
				<stop  offset="0.345" style="stop-color:#0098BA"/>
				<stop  offset="0.5072" style="stop-color:#0075AA"/>
				<stop  offset="0.7667" style="stop-color:#03508B"/>
				<stop  offset="1" style="stop-color:#252C63"/>
			</linearGradient>
			<path class="st5" d="M679.59,704.88c0,12.82-4.68,22.63-14.04,29.43c-9.36,6.8-23.11,10.2-41.27,10.2h-55.58V603.16h55.3
				c15.36,0,27.12,2.69,35.26,8.07c8.15,5.38,12.22,13.96,12.22,25.75c0,3.27-0.35,6.65-1.05,10.13s-1.98,6.73-3.84,9.75
				c-1.86,3.01-4.42,5.7-7.68,8.07c-3.26,2.37-7.45,4.07-12.57,5.1c7.17,0.6,12.92,2.05,17.25,4.32c4.33,2.28,7.68,5.06,10.05,8.33
				c2.37,3.27,3.96,6.86,4.75,10.78C679.2,697.37,679.59,701.18,679.59,704.88z M579.88,665.25h41.06c13.59,0,23.6-2.02,30.03-6.07
				c6.42-4.04,9.64-10.84,9.64-20.4c0-8.6-2.98-14.99-8.94-19.17c-5.96-4.17-15.5-6.26-28.63-6.26l-43.15,0.13V665.25z
				 M579.88,734.18h44.27c28.86,0,43.29-9.77,43.29-29.3c0-5.08-0.75-9.46-2.23-13.17c-1.49-3.7-4.03-6.73-7.61-9.1
				c-3.58-2.37-8.33-4.13-14.25-5.29c-5.91-1.16-13.34-1.74-22.27-1.74h-41.2V734.18z"/>
			<linearGradient id="SVGID_7_" gradientUnits="userSpaceOnUse" x1="47.5635" y1="667.6854" x2="948.7041" y2="662.2893">
				<stop  offset="1.082549e-07" style="stop-color:#60C2A6"/>
				<stop  offset="0.1757" style="stop-color:#11BABA"/>
				<stop  offset="0.345" style="stop-color:#0098BA"/>
				<stop  offset="0.5072" style="stop-color:#0075AA"/>
				<stop  offset="0.7667" style="stop-color:#03508B"/>
				<stop  offset="1" style="stop-color:#252C63"/>
			</linearGradient>
			<path class="st6" d="M823.99,744.51H713.53V603.16h106.69v10.33H724.7v52.28h89.52v10.33H724.7v58.09h99.29V744.51z"/>
		</g>
		<text transform="matrix(1.0819 0 0 1 58.9762 744.5068)" class="st7 st8 st9">N-VIBE</text>
	</g>
</g>
</svg>
